<svg viewBox="-1.08 -1.08 38.16 38.16" xmlns="http://www.w3.org/2000/svg" xmlns:xlink="http://www.w3.org/1999/xlink" aria-hidden="true" role="img" class="iconify iconify--twemoji" preserveAspectRatio="xMidYMid meet" fill="#000000" stroke="#000000" stroke-width="0.576"><g id="SVGRepo_bgCarrier" stroke-width="0"></g><g id="SVGRepo_tracerCarrier" stroke-linecap="round" stroke-linejoin="round" stroke="#CCCCCC" stroke-width="1.224"><path fill="#BE1931" d="M18.437 35.747c-.242.337-.632.337-.874 0L5.314 18.612c-.242-.338-.242-.886 0-1.224L17.563.253c.242-.338.632-.338.874 0l12.25 17.135c.241.338.241.886 0 1.224l-12.25 17.135z"></path></g><g id="SVGRepo_iconCarrier"><path fill="#BE1931" d="M18.437 35.747c-.242.337-.632.337-.874 0L5.314 18.612c-.242-.338-.242-.886 0-1.224L17.563.253c.242-.338.632-.338.874 0l12.25 17.135c.241.338.241.886 0 1.224l-12.25 17.135z"></path></g></svg>