<svg viewBox="-0.96 -0.96 17.92 17.92" fill="none" xmlns="http://www.w3.org/2000/svg"><g id="SVGRepo_bgCarrier" stroke-width="0"></g><g id="SVGRepo_tracerCarrier" stroke-linecap="round" stroke-linejoin="round" stroke="#fffafa" stroke-width="0.8960000000000001"> <path d="M8 0L1.03553 6.96447C0.372492 7.62751 0 8.52678 0 9.46447V9.54584C0 11.4535 1.54648 13 3.45416 13C4.1361 13 4.80278 12.7981 5.37019 12.4199L7.125 11.25L6 15V16H10V15L8.875 11.25L10.6298 12.4199C11.1972 12.7981 11.8639 13 12.5458 13C14.4535 13 16 11.4535 16 9.54584V9.46447C16 8.52678 15.6275 7.62751 14.9645 6.96447L8 0Z" fill="#000000"></path> </g><g id="SVGRepo_iconCarrier"> <path d="M8 0L1.03553 6.96447C0.372492 7.62751 0 8.52678 0 9.46447V9.54584C0 11.4535 1.54648 13 3.45416 13C4.1361 13 4.80278 12.7981 5.37019 12.4199L7.125 11.25L6 15V16H10V15L8.875 11.25L10.6298 12.4199C11.1972 12.7981 11.8639 13 12.5458 13C14.4535 13 16 11.4535 16 9.54584V9.46447C16 8.52678 15.6275 7.62751 14.9645 6.96447L8 0Z" fill="#000000"></path> </g></svg>